<svg xmlns="http://www.w3.org/2000/svg" viewBox="0 0 32 32">
  <rect width="32" height="32" rx="4" fill="#0a0a0a"/>
  <g transform="translate(16, 16)">
    <path d="M0,0
      C0,-1.5 1.5,-3 3,-3
      C5.5,-3 6,0 6,1.5
      C6,5 2,7 -1.5,7
      C-6.5,7 -9.5,2 -9.5,-2
      C-9.5,-8.5 -4,-12.5 2,-12.5
      C10,-12.5 13.5,0 13.5,0"
      fill="none" stroke="#c8a96e" stroke-width="1" stroke-linecap="round" opacity="0.5"/>
    <path d="M0,0 C0,-1.5 1.5,-3 3,-3 C5.5,-3 6,0 6,1.5"
      fill="none" stroke="#c8a96e" stroke-width="1.5" stroke-linecap="round" opacity="0.8"/>
    <circle cx="0" cy="0" r="1" fill="#c8a96e" opacity="0.7"/>
  </g>
</svg>
