<svg xmlns="http://www.w3.org/2000/svg" viewBox="0 0 32 32">
  <rect width="32" height="32" rx="4" fill="#0a0a0a"/>
  <g transform="translate(5, 6)">
    <!-- N constellation -->
    <circle cx="3" cy="19" r="1.3" fill="#c8a96e" opacity="0.9"/>
    <circle cx="3" cy="3" r="1.5" fill="#c8a96e" opacity="1"/>
    <circle cx="11" cy="19" r="1.3" fill="#c8a96e" opacity="0.9"/>
    <circle cx="11" cy="3" r="1.2" fill="#c8a96e" opacity="0.85"/>
    <line x1="3" y1="19" x2="3" y2="3" stroke="#c8a96e" stroke-width="0.6" opacity="0.4"/>
    <line x1="3" y1="3" x2="11" y2="19" stroke="#c8a96e" stroke-width="0.6" opacity="0.35"/>
    <line x1="11" y1="19" x2="11" y2="3" stroke="#c8a96e" stroke-width="0.6" opacity="0.4"/>

    <!-- J constellation -->
    <circle cx="17" cy="3" r="1.2" fill="#c8a96e" opacity="0.85"/>
    <circle cx="17" cy="14" r="1" fill="#c8a96e" opacity="0.75"/>
    <circle cx="14" cy="18" r="1.3" fill="#c8a96e" opacity="0.8"/>
    <circle cx="12" cy="16" r="0.8" fill="#c8a96e" opacity="0.6"/>
    <line x1="17" y1="3" x2="17" y2="14" stroke="#c8a96e" stroke-width="0.6" opacity="0.35"/>
    <line x1="17" y1="14" x2="14" y2="18" stroke="#c8a96e" stroke-width="0.6" opacity="0.35"/>
    <line x1="14" y1="18" x2="12" y2="16" stroke="#c8a96e" stroke-width="0.5" opacity="0.3"/>

    <!-- Background stars -->
    <circle cx="7" cy="1" r="0.4" fill="#c8a96e" opacity="0.15"/>
    <circle cx="20" cy="10" r="0.3" fill="#c8a96e" opacity="0.12"/>
    <circle cx="1" cy="12" r="0.4" fill="#c8a96e" opacity="0.1"/>
  </g>
</svg>
