<svg xmlns="http://www.w3.org/2000/svg" viewBox="0 0 32 32">
  <rect width="32" height="32" rx="4" fill="#0a0a0a"/>
  <g transform="translate(8, 4)">
    <!-- Left f-hole -->
    <path d="M5,2 C3,2 1,5 1,8 L1,11 C1,12.5 2,14 4,14.5 C2,15 1,16.5 1,18 L1,21 C1,24 3,26 5,26"
      fill="none" stroke="#c8a96e" stroke-width="1.3" stroke-linecap="round" opacity="0.75"/>
    <circle cx="3" cy="9" r="0.8" fill="#c8a96e" opacity="0.5"/>
    <circle cx="3" cy="19" r="0.8" fill="#c8a96e" opacity="0.5"/>

    <!-- Right f-hole -->
    <path d="M13,2 C15,2 17,5 17,8 L17,11 C17,12.5 16,14 14,14.5 C16,15 17,16.5 17,18 L17,21 C17,24 15,26 13,26"
      fill="none" stroke="#c8a96e" stroke-width="1.3" stroke-linecap="round" opacity="0.75"/>
    <circle cx="15" cy="9" r="0.8" fill="#c8a96e" opacity="0.5"/>
    <circle cx="15" cy="19" r="0.8" fill="#c8a96e" opacity="0.5"/>

    <!-- N diagonal -->
    <line x1="5" y1="4" x2="13" y2="24" stroke="#c8a96e" stroke-width="0.8" opacity="0.25"/>
  </g>
</svg>
